<svg id="Capa_1" enable-background="new 0 0 512 512" height="512" viewBox="0 0 512 512" width="512" xmlns="http://www.w3.org/2000/svg"><g><g><path d="m453.562 240.938h-267.594c-4.142 0-7.499 3.358-7.499 7.499s3.358 7.499 7.499 7.499h267.594c4.142 0 7.499-3.358 7.499-7.499s-3.357-7.499-7.499-7.499z"/><path d="m453.562 283.627h-267.594c-4.142 0-7.499 3.358-7.499 7.499 0 4.142 3.358 7.499 7.499 7.499h267.594c4.142 0 7.499-3.358 7.499-7.499s-3.357-7.499-7.499-7.499z"/><path d="m453.562 340.799h-164.606c-4.142 0-7.499 3.358-7.499 7.499 0 4.142 3.357 7.499 7.499 7.499h164.606c4.142 0 7.499-3.358 7.499-7.499s-3.357-7.499-7.499-7.499z"/><path d="m453.562 383.488h-164.606c-4.142 0-7.499 3.358-7.499 7.499 0 4.142 3.357 7.499 7.499 7.499h164.606c4.142 0 7.499-3.358 7.499-7.499s-3.357-7.499-7.499-7.499z"/><path d="m186.493 101.988c-4.142 0-7.499 3.358-7.499 7.499v50.92c0 12.174 9.904 22.079 22.079 22.079h74.384c12.175 0 22.079-9.904 22.079-22.079v-92.235c0-12.174-9.904-22.079-22.079-22.079h-74.384c-12.174 0-22.079 9.904-22.079 22.079v6.256c0 4.142 3.358 7.499 7.499 7.499s7.499-3.358 7.499-7.499v-6.256c0-3.904 3.176-7.08 7.08-7.08h74.384c3.904 0 7.08 3.176 7.08 7.08v71.334c-5.178-5.298-11.295-9.64-18.085-12.798 2.873-4.673 4.534-10.167 4.534-16.044 0-16.94-13.782-30.722-30.722-30.722s-30.722 13.782-30.722 30.722c0 5.876 1.661 11.371 4.534 16.044-6.789 3.158-12.906 7.501-18.084 12.798v-30.019c.001-4.142-3.356-7.499-7.498-7.499zm51.771-7.048c8.67 0 15.724 7.054 15.724 15.724s-7.054 15.724-15.724 15.724-15.723-7.054-15.723-15.724 7.053-15.724 15.723-15.724zm-13.948 43.083c4.189 2.144 8.927 3.363 13.948 3.363 5.02 0 9.759-1.218 13.948-3.363 13.11 4.062 23.732 13.633 29.156 26.269-1.267 1.922-3.443 3.194-5.912 3.194h-74.384c-2.469 0-4.644-1.272-5.912-3.194 5.425-12.636 16.047-22.206 29.156-26.269z"/><path d="m504.501 380.613c4.142 0 7.499-3.358 7.499-7.499v-264.46c0-9.477-3.69-18.386-10.391-25.086l-73.07-73.07c-6.701-6.701-15.61-10.391-25.087-10.391h-240.445c-19.563 0-35.478 15.915-35.478 35.477v266.056c-17.043 1.956-32.539 10.544-43.32 24.235l-11.045 14.027c-3.051 3.874-7.085 6.839-11.61 8.645-1.897-15.232-14.915-27.061-30.653-27.061-17.038 0-30.9 13.862-30.9 30.9v128.608c0 17.038 13.862 30.9 30.9 30.9 13.995 0 25.84-9.355 29.627-22.139 3.464.189 8.636-.77 15.552 1.985 12.752 4.087 38.277 20.154 80.085 20.154h43.496c12.652 0 22.946-10.293 22.946-22.946v-4.174h253.916c19.563 0 35.477-15.915 35.477-35.478v-40.779c0-4.142-3.357-7.499-7.499-7.499s-7.499 3.358-7.499 7.499v40.779c0 11.292-9.187 20.479-20.479 20.479h-255.884c-.181-.406-.373-.806-.576-1.199 7.384-3.818 12.444-11.528 12.444-20.398v-9.877c0-4.136-1.1-8.021-3.023-11.375 6.532-4.049 10.891-11.284 10.891-19.517v-9.877c0-4.637-1.383-8.958-3.757-12.571 5.551-4.192 9.147-10.845 9.147-18.322v-9.877c0-12.652-10.293-22.946-22.944-22.946l-74.095-.016c-3.418-.001-6.198-2.782-6.198-6.199v-18.875c0-.007.001-.013.001-.019v-273.123c0-11.292 9.187-20.479 20.479-20.479h240.446c1.39 0 2.758.14 4.089.409v64.206c0 13.699 11.145 24.845 24.845 24.845h64.205c.269 1.332.409 2.7.409 4.089v264.46c-.001 4.142 3.356 7.499 7.499 7.499zm-473.601 116.282c-8.768 0-15.902-7.133-15.902-15.901v-128.609c0-8.768 7.134-15.901 15.902-15.901s15.901 7.133 15.901 15.901v128.608c.001 8.769-7.132 15.902-15.901 15.902zm117.821-148.094 74.097.016c4.382 0 7.947 3.565 7.947 7.947v9.877c0 4.382-3.565 7.947-7.947 7.947h-5.389l-64.747-.007s0 0-.001 0c-4.141 0-7.499 3.357-7.499 7.498 0 4.142 3.357 7.5 7.498 7.5l64.747.007h.001c4.382 0 7.947 3.565 7.947 7.947v9.877c0 4.382-3.565 7.947-7.947 7.947h-7.867l-64.869-.006c-4.141 0-7.499 3.357-7.499 7.499s3.357 7.499 7.499 7.5l64.869.006c4.382 0 7.947 3.565 7.947 7.947v9.877c0 4.382-3.565 7.947-7.947 7.947h-9.898l-65.046-.017c-.001 0-.001 0-.002 0-4.141 0-7.498 3.357-7.499 7.497-.001 4.142 3.356 7.5 7.497 7.501l65.046.017h.002c4.382 0 7.947 3.565 7.947 7.947v9.877c0 4.382-3.565 7.947-7.947 7.947h-43.496c-38.148 0-60.435-14.53-74.535-19.089-9.802-3.905-17.404-2.881-19.83-3.05v-110.553c9.092-2.324 17.292-7.588 23.147-15.023l11.045-14.027c7.913-10.049 19.132-16.52 31.536-18.386v10.835c0 11.685 9.507 21.195 21.193 21.198zm273.819-269.081v-54.009l63.855 63.855h-54.009c-5.428 0-9.846-4.417-9.846-9.846z"/></g></g></svg>