<?xml version="1.0" encoding="iso-8859-1"?>
<!-- Generator: Adobe Illustrator 19.0.0, SVG Export Plug-In . SVG Version: 6.00 Build 0)  -->
<svg version="1.1" id="Layer_1" xmlns="http://www.w3.org/2000/svg" xmlns:xlink="http://www.w3.org/1999/xlink" x="0px" y="0px"
	 viewBox="0 0 512 512" style="enable-background:new 0 0 512 512;" xml:space="preserve">
<g>
	<rect x="234.658" y="78.492" style="fill:#EFE7E4;" width="269.854" height="73.789"/>
	<rect x="234.658" y="219.107" style="fill:#EFE7E4;" width="269.854" height="73.789"/>
	<rect x="234.658" y="359.722" style="fill:#EFE7E4;" width="269.854" height="73.789"/>
</g>
<g>
	<rect x="234.658" y="132.305" style="fill:#D8D1D0;" width="269.854" height="19.975"/>
	<rect x="234.658" y="272.92" style="fill:#D8D1D0;" width="269.854" height="19.975"/>
	<rect x="234.658" y="413.535" style="fill:#D8D1D0;" width="269.854" height="19.975"/>
</g>
<path style="fill:#68B9D8;" d="M105.598,370.617h98.107v-31.498c0-51.773-46.34-94.152-98.107-94.86
	c-51.768,0.708-98.107,43.088-98.107,94.86v31.498L105.598,370.617L105.598,370.617z"/>
<path style="fill:#3695B2;" d="M105.598,244.259c-3.356,0.046-6.689,0.271-9.988,0.658c47.593,5.588,88.119,45.786,88.119,94.202
	v31.498h19.975v-31.498C203.705,287.347,157.365,244.967,105.598,244.259z"/>
<path style="fill:#FFC89F;" d="M105.598,244.339L105.598,244.339c-25.788,0-46.886-21.099-46.886-46.886v-40.347
	c0-25.787,21.099-46.886,46.886-46.886l0,0c25.787,0,46.886,21.099,46.886,46.886v40.347
	C152.484,223.24,131.386,244.339,105.598,244.339z"/>
<path style="fill:#F7B081;" d="M105.598,110.221L105.598,110.221c-3.426,0-6.766,0.383-9.988,1.089
	c21.03,4.61,36.898,23.436,36.898,45.797v40.347c0,22.361-15.868,41.187-36.898,45.797c3.222,0.706,6.562,1.09,9.988,1.09l0,0
	c25.787,0,46.886-21.099,46.886-46.886v-40.347C152.484,131.32,131.386,110.221,105.598,110.221z"/>
<polygon style="fill:#F2464F;" points="105.598,350.973 129.918,328.714 116.86,272.029 105.598,272.029 94.337,272.029 
	81.278,328.714 "/>
<g>
	<polygon style="fill:#D3333C;" points="116.86,272.029 105.598,272.029 101.878,272.029 114.937,328.714 98.107,344.117 
		105.598,350.973 129.918,328.714 	"/>
	<path style="fill:#D3333C;" d="M94.337,272.029h11.262h11.262l12.594-24.469c-7.712-2.046-15.716-3.189-23.856-3.301
		c-8.139,0.111-16.144,1.254-23.856,3.301L94.337,272.029z"/>
</g>
<path style="fill:#7F1B20;" d="M115.696,244.937l-13.818,27.091h3.719h11.262l12.594-24.469
	C124.958,246.366,120.36,245.491,115.696,244.937z"/>
<g>
	<rect x="234.658" y="78.492" style="fill:#F2464F;" width="125.634" height="73.789"/>
	<rect x="234.658" y="219.107" style="fill:#F2464F;" width="221.295" height="73.789"/>
	<rect x="234.658" y="359.722" style="fill:#F2464F;" width="175.252" height="73.789"/>
</g>
<g>
	<rect x="234.658" y="132.305" style="fill:#D3333C;" width="125.634" height="19.975"/>
	<rect x="234.658" y="272.92" style="fill:#D3333C;" width="221.295" height="19.975"/>
	<rect x="234.658" y="413.535" style="fill:#D3333C;" width="175.252" height="19.975"/>
</g>
<path d="M136.883,241.888c13.954-9.854,23.092-26.092,23.092-44.435v-40.348c0-29.983-24.394-54.376-54.376-54.376
	s-54.376,24.394-54.376,54.376v40.348c0,18.342,9.139,34.581,23.092,44.435C31.787,255.536,0,294.751,0,339.119v31.498
	c0,4.138,3.354,7.491,7.491,7.491h38.737c4.138,0,7.491-3.353,7.491-7.491s-3.353-7.491-7.491-7.491H14.981v-24.007
	c0-22.7,9.699-44.417,27.31-61.149c10.217-9.707,22.523-16.996,35.663-21.402l8.466,16.452l-12.443,54.013
	c-0.605,2.631,0.251,5.384,2.242,7.207l24.321,22.259c1.431,1.309,3.244,1.966,5.057,1.966c1.813,0,3.626-0.655,5.057-1.966
	l24.32-22.259c1.992-1.823,2.848-4.576,2.242-7.207l-12.443-54.013l8.467-16.452c13.14,4.406,25.445,11.694,35.663,21.402
	c17.611,16.732,27.31,38.448,27.31,61.149v24.007H71.196c-4.138,0-7.491,3.353-7.491,7.491s3.353,7.491,7.491,7.491h132.509
	c4.138,0,7.491-3.353,7.491-7.491v-31.498C211.196,294.751,179.409,255.536,136.883,241.888z M66.203,197.453v-20.497
	c35.323-3.081,48.419-27.349,48.419-27.349s8.516,22.457,30.372,26.902v20.943c0,21.187-16.812,38.511-37.796,39.355
	c-0.498-0.014-0.997-0.033-1.497-0.04c-0.068-0.002-0.137-0.002-0.205,0c-0.5,0.007-0.999,0.026-1.497,0.04
	C83.015,235.965,66.203,218.64,66.203,197.453z M105.598,340.819l-16.04-14.681l10.739-46.619h10.601l10.74,46.619L105.598,340.819z
	 M112.29,264.538H98.905l-6.008-11.671c1.303-0.209,2.611-0.391,3.92-0.541c0.152-0.017,0.305-0.031,0.456-0.048
	c1.151-0.127,2.304-0.226,3.458-0.308c0.309-0.022,0.617-0.045,0.926-0.064c0.903-0.054,1.807-0.081,2.711-0.108
	c0.41,0.009,0.817,0.031,1.229,0.031c0.412,0,0.819-0.022,1.229-0.031c0.904,0.026,1.808,0.053,2.712,0.108
	c0.309,0.018,0.616,0.042,0.925,0.063c1.155,0.082,2.308,0.182,3.46,0.308c0.152,0.017,0.303,0.03,0.454,0.048
	c1.31,0.151,2.618,0.333,3.921,0.541L112.29,264.538z"/>
<path d="M504.509,71.003h-55.247c-4.138,0-7.491,3.353-7.491,7.491c0,4.138,3.353,7.491,7.491,7.491h47.757v58.807H367.782V85.984
	h56.511c4.138,0,7.491-3.353,7.491-7.491c0-4.138-3.353-7.491-7.491-7.491h-64.001H234.658c-4.138,0-7.491,3.353-7.491,7.491v73.788
	c0,4.138,3.353,7.491,7.491,7.491h125.634h144.218c4.137,0,7.491-3.353,7.491-7.491V78.493
	C512,74.355,508.646,71.003,504.509,71.003z M242.149,144.791V85.984h110.652v58.807H242.149z"/>
<path d="M504.509,211.615h-48.559H339.402h-0.001c-4.138,0-7.491,3.353-7.491,7.491c0,4.138,3.353,7.491,7.491,7.491h0.001h109.057
	v58.807h-206.31v-58.807h72.283h0.001c4.137,0,7.491-3.353,7.491-7.491c0-4.138-3.354-7.491-7.491-7.491h-0.001h-79.774
	c-4.138,0-7.491,3.353-7.491,7.491v73.788c0,4.138,3.353,7.491,7.491,7.491H455.95h48.559c4.137,0,7.491-3.353,7.491-7.491v-73.788
	C512,214.968,508.646,211.615,504.509,211.615z M497.019,285.403h-33.577v-58.807h33.577V285.403z"/>
<path d="M504.509,352.227h-41.568c-4.137,0-7.491,3.353-7.491,7.491c0,4.138,3.354,7.491,7.491,7.491h34.078v58.808h-79.613v-58.808
	h20.566c4.138,0,7.491-3.353,7.491-7.491c0-4.138-3.353-7.491-7.491-7.491h-28.057H234.658c-4.138,0-7.491,3.353-7.491,7.491v73.789
	c0,4.137,3.353,7.491,7.491,7.491h175.257h94.594c4.137,0,7.491-3.354,7.491-7.491v-73.789
	C512,355.58,508.646,352.227,504.509,352.227z M242.149,426.016v-58.808h160.276v58.808H242.149z"/>
<g>
</g>
<g>
</g>
<g>
</g>
<g>
</g>
<g>
</g>
<g>
</g>
<g>
</g>
<g>
</g>
<g>
</g>
<g>
</g>
<g>
</g>
<g>
</g>
<g>
</g>
<g>
</g>
<g>
</g>
</svg>
