<?xml version="1.0" encoding="iso-8859-1"?>
<!-- Generator: Adobe Illustrator 19.0.0, SVG Export Plug-In . SVG Version: 6.00 Build 0)  -->
<svg version="1.1" id="Layer_1" xmlns="http://www.w3.org/2000/svg" xmlns:xlink="http://www.w3.org/1999/xlink" x="0px" y="0px"
	 viewBox="0 0 508 508" style="enable-background:new 0 0 508 508;" xml:space="preserve">
<circle style="fill:#FFD05B;" cx="254" cy="254" r="254"/>
<g>
	<circle style="fill:#324A5E;" cx="174.4" cy="135.6" r="36"/>
	<path style="fill:#324A5E;" d="M204.4,182H144c-9.6,0-17.2,7.6-17.2,17.2v117.6h28v91.6H194v-91.2h28V199.6
		C222,190,214,182,204.4,182z"/>
</g>
<polygon style="fill:#334A5E;" points="326.8,143.6 326.8,129.2 274,129.2 274,246.8 242.8,246.8 242.8,261.2 274,261.2 274,378.8 
	326.8,378.8 326.8,364.4 288.4,364.4 288.4,261.2 326.8,261.2 326.8,246.8 288.4,246.8 288.4,143.6 "/>
<g>
	<rect x="337.6" y="114.4" style="fill:#FF7058;" width="43.6" height="43.6"/>
	<rect x="337.6" y="232" style="fill:#FF7058;" width="43.6" height="43.6"/>
	<rect x="337.6" y="349.6" style="fill:#FF7058;" width="43.6" height="43.6"/>
</g>
<g>
</g>
<g>
</g>
<g>
</g>
<g>
</g>
<g>
</g>
<g>
</g>
<g>
</g>
<g>
</g>
<g>
</g>
<g>
</g>
<g>
</g>
<g>
</g>
<g>
</g>
<g>
</g>
<g>
</g>
</svg>
